<?xml version="1.0" encoding="utf-8"?>
<!-- Generator: Adobe Illustrator 22.1.0, SVG Export Plug-In . SVG Version: 6.00 Build 0)  -->
<svg version="1.1" id="图层_1" xmlns="http://www.w3.org/2000/svg" xmlns:xlink="http://www.w3.org/1999/xlink" x="0px" y="0px"
	 viewBox="0 0 18 18" style="enable-background:new 0 0 18 18;" xml:space="preserve">
<style type="text/css">
	.st0{fill:#96989E;}
</style>
<path class="st0" d="M13.8,8.2l-1.9-1.9L13,5.3l3.2,3.2L16.7,9L13,12.7l-1.1-1.1l1.9-1.9h-8V8.2C5.8,8.2,13.8,8.2,13.8,8.2z
	 M10.3,18H2.8c-0.8,0-1.5-0.7-1.5-1.5c0,0,0,0,0,0v-15C1.3,0.7,2,0,2.8,0h7.5v1.5H3.6c-0.4,0-0.8,0.3-0.8,0.7c0,0,0,0,0,0v13.5
	c0,0.4,0.3,0.7,0.8,0.7h6.7V18z"/>
</svg>
