<?xml version="1.0" encoding="utf-8"?>
<!-- Generator: Adobe Illustrator 22.1.0, SVG Export Plug-In . SVG Version: 6.00 Build 0)  -->
<svg version="1.1" id="图层_1" xmlns="http://www.w3.org/2000/svg" xmlns:xlink="http://www.w3.org/1999/xlink" x="0px" y="0px"
	 viewBox="0 0 18 18" style="enable-background:new 0 0 18 18;" xml:space="preserve">
<style type="text/css">
	.st0{fill:#4084EE;}
</style>
<path class="st0" d="M14.1,12.1c-0.1-0.1-0.3-0.3-0.4-0.3c-0.4,0-0.6,0.3-0.6,0.6c0,0.3,0.1,0.4,0.3,0.5c1.5,1.2,2.6,3,2.7,5h1.2
	C17.1,15.6,15.9,13.5,14.1,12.1 M9.3,9.9C6.9,9.9,5,8,5,5.7C4.9,3.2,6.8,1.3,9.3,1.3c2.3,0,4.2,1.9,4.2,4.2C13.5,8,11.6,9.9,9.3,9.9
	L9.3,9.9z M14.8,5.7c0-3.1-2.4-5.7-5.7-5.7c-3,0-5.5,2.4-5.5,5.7c0,2.1,1.2,3.9,2.8,4.9c-3.2,0.9-5.5,3.9-5.7,7.5h1.2
	c0.1-3.7,3.2-6.7,6.9-6.8h0.4C12.3,11.2,14.8,8.7,14.8,5.7z"/>
<path class="st0" d="M14.1,16.7c0,0.3-0.2,0.5-0.4,0.5h-2.9c-0.2,0-0.4-0.2-0.4-0.5s0.2-0.5,0.4-0.5h2.9
	C13.9,16.2,14.1,16.4,14.1,16.7z"/>
</svg>
