<?xml version="1.0" encoding="utf-8"?>
<!-- Generator: Adobe Illustrator 22.1.0, SVG Export Plug-In . SVG Version: 6.00 Build 0)  -->
<svg version="1.1" id="图层_1" xmlns="http://www.w3.org/2000/svg" xmlns:xlink="http://www.w3.org/1999/xlink" x="0px" y="0px"
	 viewBox="0 0 18 18" style="enable-background:new 0 0 18 18;" xml:space="preserve">
<style type="text/css">
	.st0{fill:#FFFFFF;}
</style>
<path class="st0" d="M10.7,6.9H6.9C5.8,6.9,4.8,6,4.8,4.8V2.1C4.8,0.9,5.8,0,6.9,0h3.8c1.1,0,2.1,0.9,2.1,2.1v2.8
	C12.8,6,11.9,6.9,10.7,6.9z M6.9,1.4c-0.4,0-0.7,0.3-0.7,0.7v2.8c0,0.4,0.3,0.7,0.7,0.7h3.8c0.4,0,0.7-0.3,0.7-0.7V2.1
	c0-0.4-0.3-0.7-0.7-0.7H6.9z M15.9,18h-3.8C11,18,10,17.1,10,15.9v-2.8c0-1.1,0.9-2.1,2.1-2.1h3.8c1.1,0,2.1,0.9,2.1,2.1v2.8
	C18,17.1,17.1,18,15.9,18z M12.1,12.5c-0.4,0-0.7,0.3-0.7,0.7v2.8c0,0.4,0.3,0.7,0.7,0.7h3.8c0.4,0,0.7-0.3,0.7-0.7v-2.8
	c0-0.4-0.3-0.7-0.7-0.7H12.1z M5.9,18H2.1C0.9,18,0,17.1,0,15.9v-2.8c0-1.1,0.9-2.1,2.1-2.1h3.8C7,11.1,8,12,8,13.2v2.8
	C8,17.1,7,18,5.9,18z M2.1,12.5c-0.4,0-0.7,0.3-0.7,0.7v2.8c0,0.4,0.3,0.7,0.7,0.7h3.8c0.4,0,0.7-0.3,0.7-0.7v-2.8
	c0-0.4-0.3-0.7-0.7-0.7H2.1z"/>
<path class="st0" d="M14.2,11.8c-0.4,0-0.7-0.3-0.7-0.7v-1c0-0.4-0.3-0.7-0.7-0.7H5.2c-0.4,0-0.7,0.3-0.7,0.7v1
	c0,0.4-0.3,0.7-0.7,0.7s-0.7-0.3-0.7-0.7v-1C3.1,9,4,8,5.2,8h7.6c1.1,0,2.1,0.9,2.1,2.1v1C14.9,11.5,14.6,11.8,14.2,11.8z"/>
<path class="st0" d="M8.8,9.4c-0.4,0-0.7-0.3-0.7-0.7V6.3c0-0.4,0.3-0.7,0.7-0.7c0.4,0,0.7,0.3,0.7,0.7v2.4C9.5,9.1,9.2,9.4,8.8,9.4
	z"/>
</svg>
